<?xml version="1.0" encoding="utf-8"?>
<!-- Generator: Adobe Illustrator 24.2.1, SVG Export Plug-In . SVG Version: 6.00 Build 0)  -->
<svg version="1.1" xmlns="http://www.w3.org/2000/svg" xmlns:xlink="http://www.w3.org/1999/xlink" x="0px" y="0px"
	 viewBox="0 0 841.89 595.28" style="enable-background:new 0 0 841.89 595.28;" xml:space="preserve">
<style type="text/css">
	.st0{fill:#F7E2E2;}
	.st1{fill:none;stroke:#000000;stroke-miterlimit:10;}
	.st2{stroke:#000000;stroke-miterlimit:10;}
	.st3{fill:#FFFFFF;stroke:#FFFFFF;stroke-miterlimit:10;}
</style>
<g id="rektagel">
	<rect x="82.69" y="61.24" class="st0" width="100.46" height="50.11"/>
</g>
<g id="Hund">
	<path class="st1" d="M121.86,91.3c0,0,0-0.01-0.01-0.01c-0.94-1.45-3.23-3.32-3.23-3.32l1.62-0.73l-1.46-2.04
		c0,0,0.98-5.89,1.95-7.06c0.85-1.05,3.52,3.7,6.03,4.36c0,0.01,0.01,0.01,0.01,0.01"/>
	<path class="st1" d="M128.09,79.85c0,0-0.01-0.01-0.01-0.02c-0.25-0.63-0.48-1.38-0.48-2.27c0-2.89,2.32-4.19,1.09-5.49
		c-1.24-1.3-8.6-4.62-10.19-4.91c-1.59-0.29-4.04,0.58-4.62,0.72c-0.58,0.15-2.31-0.78-2.31-0.78l-2.31,0.06
		c-1.16,0.43-1.59,1.3-3.33,1.3c-1.73,0-2.59,1.45-3.61,1.59c-1.01,0.14-4.04-1.88-5.34-1.44c-1.3,0.43-3.18,3.89-4.48,4.62
		c-1.3,0.72-5.63,2.16-5.92,3.32c-0.29,1.15-0.72,4.62,0.87,5.49c1.59,0.86,4.91,2.16,5.05,3.32c0.15,1.15,0.29,3.32,0.58,2.45
		c0.29-0.86,2.02-2.74,2.02-4.62c0-1.88,0.44,1.59,1.3,2.31c0.87,0.72,1.45-1.44,2.03-1.15c0.57,0.29,2.31,2.02,2.02,3.03
		c-0.29,1.01-2.02,3.03-2.02,3.03h2.74c0,0-2.02,4.33-1.88,5.92c0.15,1.59,2.46-1.44,2.46-1.44s0,6.93,1.01,7.94
		c1.01,1.01,3.03-5.92,3.03-4.91c0,1.01,0,3.03,0,3.03s1.73-2.16,1.88-1.58c0.14,0.57,1.73,3.09,2.6,3.56
		c0.86,0.48,1.87-1.98,1.87-1.98s0.87,0.87,1.74,0.87c0.86,0,2.45-2.45,2.45-4.19c0-1.73,0.87-2.16,0.87-2.16l1.15,2.88
		c0,0,0.87-2.81,0.92-4.22c0-0.01,0-0.02,0-0.02c-0.12-0.54-0.15-0.85-0.05-0.52c0.04,0.13,0.05,0.31,0.05,0.52c0,0,0,0.01,0,0.02
		c0.12,0.56,0.33,1.36,0.58,1.95l0.01,0.01"/>
	<path class="st1" d="M107.68,97.92c1.72,0.72,3.31,1.01,3.6,0c0.29-1.01,0.87-2.46,0.87-2.46s1.16,2.46,2.02,2.31
		c0.87-0.14,2.17-0.14,2.17-0.14"/>
	<path class="st1" d="M109.98,90.12h3.9c0,0,1.01,1.44,0,2.02c-1.01,0.58-1.72,1.16-1.72,1.16s-1.6-0.87-2.17-0.87
		C109.4,92.43,109.98,90.12,109.98,90.12z"/>
	<path class="st1" d="M109.72,87.67c0.83,0,0.83,0,0.83,0l1.47-0.58"/>
	<polyline class="st1" points="108.97,85.65 110.87,86.22 112.58,85.05 	"/>
	<polyline class="st1" points="108.97,82.9 110.77,84.06 112.58,82.32 	"/>
	<polyline class="st1" points="108.97,75.1 110.77,73.52 110.87,75.1 113.3,73.52 	"/>
	<path class="st2" d="M115.33,79.73c0,0-0.71-1.59,0-2.02c0.71-0.43,3.31-0.87,3.31-0.87s0.29,0.58,0,1.44
		c-0.29,0.87-0.19,3.18-1.75,2.31C115.33,79.73,115.33,79.73,115.33,79.73z"/>
	<path class="st2" d="M99.73,80.78c0,0,1.3-1.88,2.02-1.97c0.72-0.1,3.03-0.34,3.47,0c0.43,0.34,0,2.36-0.94,2.65
		S99.73,80.78,99.73,80.78z"/>
	<path class="st1" d="M95.1,83.19c0,0,0.34-4,0.63-6.35s6.59-6.79,6.59-6.79"/>
	<path class="st1" d="M121.39,78.14c0,0-1.59-4.95-2.62-5.96c-1.03-1.01-2.46-1.58-3.76-1.58"/>
	<circle class="st3" cx="104.07" cy="80.47" r="0.39"/>
	<circle class="st3" cx="116.33" cy="79.2" r="0.39"/>
	<path class="st1" d="M126.76,82.43c0,0,2.38,1.68,2.29,1.07c-0.09-0.6-0.97-3.67-0.97-3.67l-0.48-2.27"/>
	<path class="st1" d="M121.76,91.07c0,0,0.81,2.6,0.6,2.98s-2.41-1.49-2.41-1.49s0.81,3.45,0.62,3.75c-0.19,0.3-1.12-1.22-1.12-1.22
		l-0.23-1.5"/>
</g>
<g id="Text">
	<g>
		<path d="M136.33,76.42v3.38h3.91v-3.38h1.06v8.08h-1.06v-3.79h-3.91v3.79h-1.04v-8.08H136.33z"/>
		<path d="M147.93,82.92c0,0.6,0.01,1.13,0.05,1.58h-0.94l-0.06-0.95h-0.02c-0.28,0.47-0.89,1.08-1.92,1.08c-0.91,0-2-0.5-2-2.54
			V78.7h1.06v3.21c0,1.1,0.34,1.85,1.3,1.85c0.71,0,1.2-0.49,1.39-0.96c0.06-0.16,0.1-0.35,0.1-0.54V78.7h1.06V82.92z"/>
		<path d="M149.69,80.27c0-0.6-0.01-1.09-0.05-1.57h0.94l0.06,0.96h0.02c0.29-0.55,0.96-1.09,1.92-1.09c0.8,0,2.05,0.48,2.05,2.47
			v3.47h-1.06v-3.35c0-0.94-0.35-1.71-1.34-1.71c-0.7,0-1.24,0.49-1.42,1.08c-0.05,0.13-0.07,0.31-0.07,0.49v3.49h-1.06V80.27z"/>
		<path d="M161.36,75.99v7.02c0,0.52,0.01,1.1,0.05,1.5h-0.95l-0.05-1.01h-0.02c-0.32,0.65-1.03,1.14-1.98,1.14
			c-1.4,0-2.48-1.19-2.48-2.95c-0.01-1.93,1.19-3.12,2.6-3.12c0.89,0,1.49,0.42,1.75,0.89h0.02v-3.47H161.36z M160.31,81.07
			c0-0.13-0.01-0.31-0.05-0.44c-0.16-0.67-0.73-1.22-1.52-1.22c-1.09,0-1.74,0.96-1.74,2.24c0,1.18,0.58,2.15,1.72,2.15
			c0.71,0,1.35-0.47,1.55-1.26c0.04-0.14,0.05-0.29,0.05-0.46V81.07z"/>
		<path d="M170.76,84.51c-0.23-0.23-0.44-0.46-0.76-0.79c-0.7,0.65-1.48,0.92-2.36,0.92c-1.57,0-2.48-1.06-2.48-2.27
			c0-1.1,0.66-1.86,1.58-2.36v-0.04c-0.42-0.53-0.67-1.12-0.67-1.69c0-0.98,0.71-1.99,2.05-1.99c1.01,0,1.79,0.67,1.79,1.71
			c0,0.85-0.49,1.52-1.77,2.16v0.04c0.68,0.79,1.45,1.68,1.97,2.25c0.37-0.56,0.62-1.34,0.78-2.36h0.96
			c-0.22,1.27-0.56,2.28-1.16,2.99c0.43,0.46,0.85,0.91,1.33,1.43H170.76z M169.49,83.12c-0.48-0.53-1.38-1.51-2.28-2.54
			c-0.43,0.28-1.04,0.79-1.04,1.64c0,0.92,0.68,1.63,1.65,1.63C168.51,83.85,169.1,83.54,169.49,83.12z M167.03,78.19
			c0,0.58,0.26,1.02,0.61,1.45c0.82-0.47,1.34-0.9,1.34-1.58c0-0.49-0.28-1.04-0.94-1.04C167.37,77.01,167.03,77.56,167.03,78.19z"
			/>
	</g>
	<g>
		<path d="M135.6,95.27c-0.06-1.13-0.13-2.48-0.12-3.49h-0.04c-0.28,0.95-0.61,1.96-1.02,3.07l-1.43,3.92h-0.79l-1.31-3.85
			c-0.38-1.14-0.71-2.18-0.94-3.14h-0.02c-0.02,1.01-0.08,2.36-0.16,3.57l-0.22,3.47h-1l0.56-8.08h1.33l1.38,3.91
			c0.34,1,0.61,1.88,0.82,2.72h0.04c0.2-0.82,0.49-1.7,0.85-2.72l1.44-3.91h1.33l0.5,8.08h-1.02L135.6,95.27z"/>
		<path d="M141.68,98.82l-0.08-0.73h-0.04c-0.32,0.46-0.95,0.86-1.77,0.86c-1.18,0-1.77-0.83-1.77-1.67c0-1.4,1.25-2.17,3.49-2.16
			V95c0-0.48-0.13-1.34-1.32-1.34c-0.54,0-1.1,0.17-1.51,0.43l-0.24-0.7c0.48-0.31,1.18-0.52,1.91-0.52c1.77,0,2.21,1.21,2.21,2.37
			v2.17c0,0.5,0.02,1,0.1,1.39H141.68z M138.77,91.37c0-0.34,0.28-0.61,0.61-0.61s0.59,0.26,0.59,0.61c0,0.32-0.24,0.61-0.59,0.61
			C139.02,91.98,138.77,91.69,138.77,91.37z M141.53,95.85c-1.15-0.02-2.46,0.18-2.46,1.31c0,0.68,0.46,1.01,1,1.01
			c0.76,0,1.24-0.48,1.4-0.97c0.04-0.11,0.06-0.23,0.06-0.34V95.85z M141,91.37c0-0.34,0.26-0.61,0.6-0.61s0.59,0.26,0.59,0.61
			c0,0.32-0.24,0.61-0.59,0.61C141.24,91.98,141,91.69,141,91.37z"/>
		<path d="M144.25,94.58c0-0.6-0.01-1.09-0.05-1.57h0.94l0.06,0.96h0.02c0.29-0.55,0.96-1.09,1.92-1.09c0.8,0,2.05,0.48,2.05,2.47
			v3.47h-1.06v-3.35c0-0.94-0.35-1.71-1.34-1.71c-0.7,0-1.24,0.49-1.42,1.08c-0.05,0.13-0.07,0.31-0.07,0.49v3.49h-1.06V94.58z"/>
		<path d="M150.91,94.58c0-0.6-0.01-1.09-0.05-1.57h0.94l0.06,0.96h0.02c0.29-0.55,0.96-1.09,1.92-1.09c0.8,0,2.05,0.48,2.05,2.47
			v3.47h-1.06v-3.35c0-0.94-0.35-1.71-1.34-1.71c-0.7,0-1.24,0.49-1.42,1.08c-0.05,0.13-0.07,0.31-0.07,0.49v3.49h-1.06V94.58z"/>
		<path d="M158.75,91.38c0.01,0.36-0.25,0.65-0.67,0.65c-0.37,0-0.64-0.29-0.64-0.65c0-0.37,0.28-0.66,0.66-0.66
			C158.49,90.72,158.75,91.01,158.75,91.38z M157.57,98.82v-5.8h1.06v5.8H157.57z"/>
		<path d="M160.24,97.74c0.31,0.2,0.86,0.42,1.39,0.42c0.77,0,1.13-0.38,1.13-0.86c0-0.5-0.3-0.78-1.08-1.07
			c-1.04-0.37-1.54-0.95-1.54-1.64c0-0.94,0.76-1.7,2-1.7c0.59,0,1.1,0.17,1.43,0.36l-0.26,0.77c-0.23-0.14-0.65-0.34-1.19-0.34
			c-0.62,0-0.97,0.36-0.97,0.79c0,0.48,0.35,0.7,1.1,0.98c1.01,0.38,1.52,0.89,1.52,1.75c0,1.02-0.79,1.74-2.17,1.74
			c-0.64,0-1.22-0.16-1.63-0.4L160.24,97.74z"/>
		<path d="M166.17,95.67h0.02c0.14-0.2,0.35-0.46,0.52-0.66l1.7-2h1.27l-2.24,2.39l2.55,3.42h-1.28l-2-2.78l-0.54,0.6v2.18h-1.04
			V90.3h1.04V95.67z"/>
		<path d="M174.19,98.82l-0.08-0.73h-0.04c-0.32,0.46-0.95,0.86-1.77,0.86c-1.18,0-1.77-0.83-1.77-1.67c0-1.4,1.25-2.17,3.49-2.16
			V95c0-0.48-0.13-1.34-1.32-1.34c-0.54,0-1.1,0.17-1.51,0.43l-0.24-0.7c0.48-0.31,1.18-0.52,1.91-0.52c1.77,0,2.21,1.21,2.21,2.37
			v2.17c0,0.5,0.02,1,0.1,1.39H174.19z M174.03,95.85c-1.15-0.02-2.46,0.18-2.46,1.31c0,0.68,0.46,1.01,1,1.01
			c0.76,0,1.24-0.48,1.4-0.97c0.04-0.11,0.06-0.23,0.06-0.34V95.85z"/>
	</g>
</g>
</svg>
