<svg xmlns="http://www.w3.org/2000/svg" viewBox="0 0 135.92 50.11"><defs><style>.cls-1{fill:#f7e2e2;}.cls-2{fill:none;}.cls-2,.cls-3{stroke:#000;}.cls-2,.cls-3,.cls-4{stroke-miterlimit:10;}.cls-4{fill:#fff;stroke:#fff;}.cls-5{font-size:12px;font-family:MyriadPro-Regular, Myriad Pro;}.cls-6{letter-spacing:0.01em;}.cls-7{letter-spacing:0.02em;}.cls-8{letter-spacing:0.04em;}</style></defs><g id="rektagel"><rect class="cls-1" width="100.46" height="50.11"/></g><g id="Hund"><path class="cls-2" d="M121.86,91.3h0A19.46,19.46,0,0,0,118.62,88l1.61-.74-1.46-2s1-5.89,2-7.06,3.51,3.7,6,4.37h0" transform="translate(-82.69 -61.24)"/><path class="cls-2" d="M128.09,79.85a0,0,0,0,1,0,0,6,6,0,0,1-.48-2.27c0-2.89,2.32-4.19,1.09-5.49s-8.6-4.62-10.19-4.91-4,.58-4.62.72-2.31-.78-2.31-.78l-2.31.06c-1.16.43-1.59,1.3-3.33,1.3s-2.59,1.45-3.61,1.59-4-1.88-5.34-1.44S93.8,72.5,92.5,73.23s-5.63,2.16-5.92,3.32-.72,4.62.87,5.49,4.91,2.16,5,3.32.29,3.32.58,2.45,2-2.74,2-4.62.44,1.59,1.3,2.31,1.45-1.44,2-1.15,2.31,2,2,3a13.33,13.33,0,0,1-2,3h2.74s-2,4.33-1.88,5.92,2.46-1.44,2.46-1.44,0,6.93,1,7.94,3-5.92,3-4.91v3s1.73-2.16,1.88-1.58a10.08,10.08,0,0,0,2.6,3.56c.86.48,1.87-2,1.87-2a3,3,0,0,0,1.74.87c.86,0,2.45-2.45,2.45-4.19s.87-2.16.87-2.16l1.15,2.88a23.34,23.34,0,0,0,.92-4.22v0c-.12-.54-.15-.85,0-.52a1.9,1.9,0,0,1,0,.52v0a11.9,11.9,0,0,0,.58,2h0" transform="translate(-82.69 -61.24)"/><path class="cls-2" d="M107.68,97.92c1.72.72,3.31,1,3.6,0s.86-2.45.86-2.45,1.16,2.45,2,2.31a15.8,15.8,0,0,1,2.16-.15" transform="translate(-82.69 -61.24)"/><path class="cls-2" d="M110,90.12h3.9s1,1.45,0,2a14.8,14.8,0,0,0-1.73,1.16,8.23,8.23,0,0,0-2.17-.87C109.4,92.43,110,90.12,110,90.12Z" transform="translate(-82.69 -61.24)"/><path class="cls-2" d="M109.72,87.67h.84l1.46-.58" transform="translate(-82.69 -61.24)"/><polyline class="cls-2" points="26.28 24.41 28.19 24.99 29.89 23.81"/><polyline class="cls-2" points="26.28 21.67 28.09 22.82 29.89 21.09"/><polyline class="cls-2" points="26.28 13.87 28.09 12.28 28.19 13.87 30.61 12.28"/><path class="cls-3" d="M115.33,79.73s-.71-1.59,0-2a16,16,0,0,1,3.31-.86,2,2,0,0,1,0,1.44c-.29.87-.19,3.18-1.75,2.31Z" transform="translate(-82.69 -61.24)"/><path class="cls-3" d="M99.73,80.78s1.29-1.87,2-2,3-.34,3.46,0,0,2.36-.94,2.65S99.73,80.78,99.73,80.78Z" transform="translate(-82.69 -61.24)"/><path class="cls-2" d="M95.1,83.19s.34-4,.63-6.35,6.59-6.79,6.59-6.79" transform="translate(-82.69 -61.24)"/><path class="cls-2" d="M121.39,78.14s-1.59-5-2.62-6A5.54,5.54,0,0,0,115,70.6" transform="translate(-82.69 -61.24)"/><circle class="cls-4" cx="21.38" cy="19.23" r="0.39"/><circle class="cls-4" cx="33.65" cy="17.97" r="0.39"/><path class="cls-2" d="M126.76,82.43s2.38,1.68,2.29,1.07-1-3.67-1-3.67l-.48-2.27" transform="translate(-82.69 -61.24)"/><path class="cls-2" d="M121.76,91.07s.8,2.6.6,3S120,92.56,120,92.56s.81,3.45.62,3.75-1.12-1.22-1.12-1.22l-.23-1.5" transform="translate(-82.69 -61.24)"/></g><g id="Text"><text class="cls-5" transform="translate(51.69 23.27)">Hund &amp;</text><text class="cls-5" transform="translate(45.19 37.58)"><tspan class="cls-6">M</tspan><tspan x="9.72" y="0">ännis</tspan><tspan class="cls-7" x="36.38" y="0">k</tspan><tspan class="cls-8" x="42.23" y="0">a</tspan></text></g></svg>