<svg xmlns="http://www.w3.org/2000/svg" viewBox="0 0 100.46 50.11"><defs><style>.cls-1{fill:#f7e2e2;}.cls-2{fill:none;}.cls-2,.cls-3{stroke:#000;}.cls-2,.cls-3,.cls-4{stroke-miterlimit:10;}.cls-4{fill:#fff;stroke:#fff;}</style></defs><g id="rektagel"><rect class="cls-1" width="100.46" height="50.11"/></g><g id="Hund"><path class="cls-2" d="M39.18,30.07a0,0,0,0,0,0,0,19.57,19.57,0,0,0-3.24-3.32L37.55,26,36.09,24s1-5.88,1.95-7,3.52,3.7,6,4.36a0,0,0,0,0,0,0"/><path class="cls-2" d="M45.4,18.61a0,0,0,0,1,0,0,6,6,0,0,1-.48-2.27c0-2.89,2.32-4.19,1.09-5.49S37.4,6.21,35.81,5.92s-4,.58-4.62.72-2.31-.78-2.31-.78l-2.31.06c-1.16.43-1.59,1.3-3.33,1.3s-2.59,1.45-3.61,1.59-4-1.88-5.34-1.44S11.11,11.26,9.81,12s-5.63,2.16-5.92,3.32-.72,4.62.87,5.49S9.67,23,9.81,24.12s.29,3.32.58,2.45,2-2.74,2-4.62.44,1.59,1.3,2.31,1.45-1.44,2-1.15,2.31,2,2,3a13.33,13.33,0,0,1-2,3h2.74s-2,4.33-1.88,5.92,2.46-1.44,2.46-1.44,0,6.93,1,7.94,3-5.92,3-4.91v3s1.73-2.16,1.88-1.58a10.08,10.08,0,0,0,2.6,3.56c.86.48,1.87-2,1.87-2a3,3,0,0,0,1.74.87c.86,0,2.45-2.45,2.45-4.19s.87-2.16.87-2.16l1.15,2.88a23.34,23.34,0,0,0,.92-4.22v0c-.12-.54-.15-.85,0-.52a1.9,1.9,0,0,1,0,.52v0a11.9,11.9,0,0,0,.58,2h0"/><path class="cls-2" d="M25,36.68c1.73.73,3.31,1,3.6,0s.87-2.45.87-2.45,1.15,2.45,2,2.31a17.13,17.13,0,0,1,2.17-.14"/><path class="cls-2" d="M27.29,28.89h3.9s1,1.44,0,2a14.84,14.84,0,0,0-1.72,1.15,8.39,8.39,0,0,0-2.18-.86C26.72,31.2,27.29,28.89,27.29,28.89Z"/><path class="cls-2" d="M27,26.43h.83l1.47-.58"/><polyline class="cls-2" points="26.28 24.41 28.19 24.99 29.89 23.81"/><polyline class="cls-2" points="26.28 21.67 28.09 22.82 29.89 21.09"/><polyline class="cls-2" points="26.28 13.87 28.09 12.28 28.19 13.87 30.61 12.28"/><path class="cls-3" d="M32.64,18.49s-.71-1.59,0-2A15.7,15.7,0,0,1,36,15.6,2,2,0,0,1,36,17c-.29.87-.19,3.18-1.75,2.32Z"/><path class="cls-3" d="M17,19.55s1.3-1.88,2-2,3-.33,3.47,0,0,2.36-.94,2.65S17,19.55,17,19.55Z"/><path class="cls-2" d="M12.42,22s.34-4,.63-6.35,6.59-6.79,6.59-6.79"/><path class="cls-2" d="M38.7,16.9S37.12,12,36.09,11a5.56,5.56,0,0,0-3.76-1.59"/><circle class="cls-4" cx="21.38" cy="19.23" r="0.39"/><circle class="cls-4" cx="33.65" cy="17.97" r="0.39"/><path class="cls-2" d="M44.07,21.19s2.38,1.68,2.29,1.08-1-3.68-1-3.68l-.48-2.27"/><path class="cls-2" d="M39.07,29.83s.81,2.6.6,3-2.4-1.49-2.4-1.49.81,3.45.61,3.75-1.11-1.23-1.11-1.23l-.24-1.5"/></g><g id="Text"><path d="M53.65,15.19v3.38h3.91V15.19h1v8.08h-1V19.48H53.65v3.79h-1V15.19Z"/><path d="M65.25,21.69c0,.6,0,1.13,0,1.58h-.94l-.06-.95h0a2.19,2.19,0,0,1-1.92,1.08c-.91,0-2-.5-2-2.54V17.47h1.06v3.21c0,1.1.34,1.85,1.3,1.85a1.54,1.54,0,0,0,1.39-1,1.57,1.57,0,0,0,.09-.54V17.47h1.06Z"/><path d="M67,19c0-.6,0-1.09,0-1.57h.94l.06,1h0a2.13,2.13,0,0,1,1.92-1.1c.81,0,2,.48,2,2.47v3.47h-1V19.92c0-.93-.35-1.71-1.35-1.71a1.5,1.5,0,0,0-1.41,1.08,1.45,1.45,0,0,0-.07.49v3.49H67Z"/><path d="M78.68,14.76v7c0,.52,0,1.11,0,1.5h-.94l0-1h0a2.13,2.13,0,0,1-2,1.14c-1.41,0-2.49-1.18-2.49-2.95,0-1.93,1.19-3.12,2.6-3.12a2,2,0,0,1,1.76.89h0V14.76Zm-1.06,5.07a1.65,1.65,0,0,0-.05-.44,1.54,1.54,0,0,0-1.52-1.23c-1.09,0-1.74,1-1.74,2.24s.58,2.15,1.71,2.15a1.59,1.59,0,0,0,1.55-1.26,1.64,1.64,0,0,0,.05-.45Z"/><path d="M88.07,23.27c-.23-.23-.44-.45-.75-.79A3.32,3.32,0,0,1,85,23.4a2.28,2.28,0,0,1-2.48-2.26,2.67,2.67,0,0,1,1.58-2.37v0a2.79,2.79,0,0,1-.67-1.69,2,2,0,0,1,2.05-2,1.68,1.68,0,0,1,1.79,1.71c0,.85-.49,1.52-1.78,2.16v0l2,2.25a5.83,5.83,0,0,0,.78-2.36h1a6,6,0,0,1-1.16,3l1.33,1.43ZM86.8,21.88c-.48-.53-1.38-1.51-2.28-2.54a2,2,0,0,0-1,1.64,1.59,1.59,0,0,0,1.65,1.63A2.25,2.25,0,0,0,86.8,21.88ZM84.34,17A2.29,2.29,0,0,0,85,18.4c.82-.47,1.35-.9,1.35-1.58a1,1,0,0,0-.94-1.05A1.06,1.06,0,0,0,84.34,17Z"/><path d="M52.91,34c-.06-1.13-.13-2.48-.12-3.49h0c-.27.95-.61,2-1,3.07l-1.43,3.92h-.79l-1.31-3.85c-.38-1.14-.71-2.18-.94-3.14h0c0,1-.08,2.36-.16,3.57l-.21,3.47h-1l.57-8.08h1.33l1.38,3.91c.33,1,.61,1.88.81,2.72h0c.2-.82.49-1.7.85-2.72L52.3,29.5h1.33l.5,8.08h-1Z"/><path d="M59,37.58l-.09-.73h0a2.19,2.19,0,0,1-1.78.86A1.65,1.65,0,0,1,55.33,36c0-1.4,1.24-2.17,3.49-2.15v-.12a1.21,1.21,0,0,0-1.32-1.35,2.9,2.9,0,0,0-1.51.43l-.24-.69a3.6,3.6,0,0,1,1.9-.52c1.78,0,2.21,1.21,2.21,2.38v2.17a7.44,7.44,0,0,0,.1,1.39Zm-2.92-7.45a.62.62,0,0,1,.61-.61.61.61,0,0,1,0,1.22A.6.6,0,0,1,56.08,30.13Zm2.76,4.49c-1.15,0-2.46.18-2.46,1.3a.94.94,0,0,0,1,1,1.45,1.45,0,0,0,1.4-1,1,1,0,0,0,.06-.33Zm-.53-4.49a.61.61,0,0,1,.6-.61.61.61,0,0,1,0,1.22A.59.59,0,0,1,58.31,30.13Z"/><path d="M61.57,33.35c0-.6,0-1.1,0-1.57h.93l.06.95h0a2.14,2.14,0,0,1,1.92-1.09c.8,0,2.05.48,2.05,2.47v3.47H65.45V34.23c0-.93-.35-1.71-1.34-1.71a1.5,1.5,0,0,0-1.42,1.08,1.75,1.75,0,0,0-.07.49v3.49h-1Z"/><path d="M68.23,33.35c0-.6,0-1.1,0-1.57h.93l.06.95h0a2.14,2.14,0,0,1,1.92-1.09c.8,0,2,.48,2,2.47v3.47H72.11V34.23c0-.93-.35-1.71-1.34-1.71a1.5,1.5,0,0,0-1.42,1.08,1.75,1.75,0,0,0-.07.49v3.49h-1Z"/><path d="M76.06,30.14a.62.62,0,0,1-.67.65.63.63,0,0,1-.64-.65.65.65,0,0,1,.66-.66A.63.63,0,0,1,76.06,30.14Zm-1.17,7.44v-5.8h1v5.8Z"/><path d="M77.55,36.5a2.79,2.79,0,0,0,1.39.42c.77,0,1.13-.38,1.13-.86S79.77,35.28,79,35c-1-.37-1.54-1-1.54-1.64a1.8,1.8,0,0,1,2-1.71,2.9,2.9,0,0,1,1.42.36l-.26.77a2.32,2.32,0,0,0-1.19-.33c-.62,0-1,.35-1,.79s.35.69,1.11,1c1,.38,1.52.89,1.52,1.75,0,1-.79,1.74-2.17,1.74a3.27,3.27,0,0,1-1.63-.4Z"/><path d="M83.49,34.44h0c.15-.21.35-.46.52-.66l1.7-2H87l-2.24,2.38,2.56,3.42H86L84,34.8l-.54.6v2.18h-1V29.06h1Z"/><path d="M91.5,37.58l-.08-.73h0a2.16,2.16,0,0,1-1.77.86A1.66,1.66,0,0,1,87.83,36c0-1.4,1.25-2.17,3.49-2.15v-.12A1.2,1.2,0,0,0,90,32.42a3,3,0,0,0-1.52.43l-.24-.69a3.64,3.64,0,0,1,1.91-.52c1.78,0,2.21,1.21,2.21,2.38v2.17a8.47,8.47,0,0,0,.09,1.39Zm-.15-3c-1.15,0-2.46.18-2.46,1.3a.94.94,0,0,0,1,1,1.45,1.45,0,0,0,1.4-1,1.36,1.36,0,0,0,.06-.33Z"/></g></svg>